<?xml version="1.0" standalone="no"?><!DOCTYPE svg PUBLIC "-//W3C//DTD SVG 1.1//EN" "http://www.w3.org/Graphics/SVG/1.1/DTD/svg11.dtd"><svg t="1540367428793" class="icon" style="" viewBox="0 0 1024 1024" version="1.1" xmlns="http://www.w3.org/2000/svg" p-id="1407" xmlns:xlink="http://www.w3.org/1999/xlink" width="200" height="200"><defs><style type="text/css"></style></defs><path d="M132.857 387.309h68.007l95.811 259.134h-69.5l-15.885-46.663h-89.359l-16.382 46.663h-68.506l95.811-259.134zM136.826 550.134h58.083l-28.297-90.845h-0.494l-29.289 90.845z" p-id="1408"></path><path d="M338.872 577.935c0 0 7.94 19.361 24.325 19.361 15.39 0 23.828-12.412 23.828-37.232v-172.756h66.522v177.22c0 58.083-29.289 86.875-89.853 87.375-37.73 0-59.072-23.828-63.543-35.745l38.72-38.228z" p-id="1409"></path><path d="M548.363 387.309h68.007l95.811 259.134h-69.5l-15.885-46.663h-89.359l-16.382 46.663h-68.506l95.811-259.134zM552.331 550.134h58.083l-28.297-90.845h-0.494l-29.289 90.845z" p-id="1410"></path><path d="M816.431 510.42l-83.893-123.109h78.433l43.189 80.918 45.67-80.918h75.956l-82.903 123.109 90.845 136.022h-81.415l-48.155-86.375-52.126 86.375h-76.947z" p-id="1411"></path></svg>