<?xml version="1.0" standalone="no"?><!DOCTYPE svg PUBLIC "-//W3C//DTD SVG 1.1//EN" "http://www.w3.org/Graphics/SVG/1.1/DTD/svg11.dtd"><svg t="1539933355143" class="icon" style="" viewBox="0 0 1024 1024" version="1.1" xmlns="http://www.w3.org/2000/svg" p-id="4280" xmlns:xlink="http://www.w3.org/1999/xlink" width="200" height="200"><defs><style type="text/css"></style></defs><path d="M892.37417 240.089124l-132.471081 0.301875c26.78504-18.777669 41.695634-33.331129 44.445258-36.09201 24.994254-23.489994 39.318494-51.354622 41.432645-80.610946 1.965771-27.185152-6.886851-53.847395-24.926716-75.073836C800.420899 24.571628 770.994706 10.200316 737.995127 8.149611c-35.577287-2.215458-72.176856 10.187013-105.915261 35.861766-8.100492 4.860704-42.739407 27.471678-88.884376 83.773985-53.851489 62.161758-52.448536 166.171624-52.252061 174.288488l0 256.93786L103.228059 559.01171 103.228059 314.651306c0-16.883529 13.734816-30.619368 30.614252-30.619368l212.876342 0.040932c0.002047 0 0.002047 0 0.004093 0 10.855232 0 20.276812-7.868201 21.912056-18.600637 1.630127-10.69969-4.585435-20.926612-14.891152-24.193005-2.038426-0.756223-37.338397-14.354939-102.273315-69.477374-16.180518-13.734816-25.430182-30.072923-26.748201-47.24707-1.171686-15.263635 3.933589-30.772864 14.375405-43.672662 24.24417-29.952172 75.073836-43.104727 129.390929-1.202385 1.25969 0.972141 1.442862 1.222851 2.713808 1.817392 1.942235 1.304715 11.269671 7.966439 33.893948 29.612435 5.225001 5.411243 38.312584 38.517245 72.0295 45.614897 11.867282 2.495844 23.526833-5.099135 26.027793-16.97358 2.498914-11.874445-5.099135-23.526833-16.974603-26.02677-16.128329-3.39533-39.035038-22.26612-49.666166-33.342386-0.226151-0.237407-0.458441-0.469698-0.695848-0.696872-24.559349-23.520693-36.359093-32.311917-41.461297-35.546587-73.9175-56.342216-151.147442-38.181601-189.413977 9.096169-17.532305 21.660322-26.067702 48.182372-24.034393 74.682933 2.235924 29.129434 16.801664 55.888891 42.1244 77.385485 16.330944 13.862729 30.978549 25.335015 43.928488 34.81083l-133.11474-0.025583c-41.114396 0-74.563206 33.44881-74.563206 74.563206l0 620.857267c0 41.114396 33.44881 74.562183 74.563206 74.562183l758.576885 0c41.114396 0 74.562183-33.44881 74.562183-74.562183L966.984449 314.651306C966.986495 273.53691 933.537685 240.0881 892.37417 240.089124zM534.877033 301.139571c-0.007163-0.234337-0.630357-23.76117 4.460592-54.044894 4.556783-27.106358 14.716166-64.84896 37.229926-90.716094 0.145309-0.166799 0.286526-0.335644 0.426719-0.505513 44.783972-54.695716 76.387761-73.42836 77.961606-74.339102 1.069355-0.571005 1.855254-1.105171 2.825348-1.853208 54.69981-42.196031 105.518219-30.931476 129.588427-2.608407 18.120706 21.321608 25.495674 59.109236-13.355169 95.430466-0.227174 0.211824-0.485047 0.464581-0.703011 0.686638-0.353041 0.35918-36.084846 36.309974-103.982236 69.632917-9.184173 4.507664-14.041808 14.756075-11.715833 24.717961 2.320858 9.946536 11.186783 16.97972 21.396309 16.978696 0.016373 0 0.033769 0 0.050142 0l213.364459-0.48607c16.883529 0 30.618345 13.735839 30.618345 30.619368l0 244.361427L534.887266 559.013757 534.887266 301.785278C534.887266 301.56936 534.884197 301.354466 534.877033 301.139571zM103.228059 935.508573 103.228059 602.957595l387.715369 0L490.943428 966.126918 133.846404 966.126918C116.962875 966.126918 103.228059 952.391079 103.228059 935.508573zM892.424312 966.126918 534.887266 966.126918 534.887266 602.957595l388.154367 0 0 332.552002C923.041634 952.391079 909.307841 966.126918 892.424312 966.126918z" p-id="4281"></path></svg>